<svg width="94" height="34" viewBox="0 0 94 34" fill="none" xmlns="http://www.w3.org/2000/svg">
<path d="M81.624 6.32379V0.19819H64.4828L61.6608 20.6546L58.8728 0.19819H52.6912L53.382 5.66059C52.6694 4.26059 50.1398 0.19819 44.5698 0.19819C44.5328 0.19579 38.3808 0.19819 38.3808 0.19819L38.3552 30.015L33.8506 0.19819L25.7538 0.19579L21.093 31.0892L21.0956 0.19819H13.3452L10.5522 17.5518L7.8314 0.19819H0.0798035V33.7846H6.1844V17.5958L8.9616 33.7846H12.2064L14.9444 17.5958V33.7846H26.712L27.4236 28.6186H32.1612L32.8728 33.7846L44.427 33.792H44.4354V33.7846H44.4498V22.8838L45.8646 22.679L48.7968 33.792H54.7734L54.771 33.7846H54.788L50.9404 20.7626C52.8886 19.3268 55.0908 15.6868 54.5048 12.203V12.2018C54.512 12.247 58.1376 33.807 58.1376 33.807L65.2444 33.785L70.1002 3.34439V33.785H81.6236V27.7452H76.1548V20.0438H81.6236V13.9118H76.1548V6.32379H81.624ZM28.1426 23.294L29.82 8.93359L31.558 23.294H28.1426ZM45.8842 16.663C45.4154 16.8876 44.9274 17 44.4498 17.0012V6.19919C44.4572 6.19919 44.4684 6.19799 44.4804 6.19799C44.9564 6.19439 48.521 6.34079 48.521 11.5398C48.521 14.2594 47.309 15.9746 45.8842 16.663ZM93.9214 27.7396V33.7772H82.6786V0.19339H88.733V27.7396H93.9214Z" fill="black"/>
</svg>
